<?xml version="1.0" standalone="no"?>
<!DOCTYPE svg PUBLIC "-//W3C//DTD SVG 20010904//EN"
 "http://www.w3.org/TR/2001/REC-SVG-20010904/DTD/svg10.dtd">
<svg version="1.0" xmlns="http://www.w3.org/2000/svg"
 width="32.000000pt" height="32.000000pt" viewBox="0 0 32.000000 32.000000"
 preserveAspectRatio="xMidYMid meet">

<g transform="translate(0.000000,32.000000) scale(0.100000,-0.100000)"
fill="#000000" stroke="none">
<path d="M127 263 c-4 -3 1 -11 10 -18 14 -10 12 -13 -13 -18 -38 -7 -82 -51
-92 -91 l-8 -31 68 -3 c37 -2 99 -2 136 0 l68 3 -8 31 c-10 40 -54 84 -92 91
-25 5 -27 8 -13 18 9 7 14 15 10 18 -8 9 -58 9 -66 0z"/>
<path d="M7 84 c-4 -4 -7 -13 -7 -21 0 -10 33 -13 161 -13 147 0 160 1 157 18
-3 15 -20 17 -154 20 -82 1 -153 -1 -157 -4z"/>
</g>
</svg>
